<svg width="327" height="50" viewBox="0 0 327 50" fill="none" xmlns="http://www.w3.org/2000/svg">
<path d="M82.2188 37H74.125L65.7812 20.9062H65.6406C65.6927 21.3958 65.7396 21.9844 65.7812 22.6719C65.8229 23.3594 65.8594 24.0625 65.8906 24.7812C65.9219 25.4896 65.9375 26.1302 65.9375 26.7031V37H60.4688V14.1562H68.5312L76.8438 30.0312H76.9375C76.9062 29.5312 76.875 28.9531 76.8438 28.2969C76.8125 27.6302 76.7812 26.9583 76.75 26.2812C76.7292 25.6042 76.7188 25.0052 76.7188 24.4844V14.1562H82.2188V37ZM99.9531 31.5625C99.9531 32.6875 99.7031 33.6823 99.2031 34.5469C98.7031 35.4115 97.901 36.0885 96.7969 36.5781C95.7031 37.0677 94.2604 37.3125 92.4688 37.3125C91.2083 37.3125 90.0781 37.2448 89.0781 37.1094C88.0885 36.974 87.0833 36.7135 86.0625 36.3281V31.4375C87.1771 31.9479 88.3125 32.3177 89.4688 32.5469C90.625 32.7656 91.5365 32.875 92.2031 32.875C92.8906 32.875 93.3906 32.8021 93.7031 32.6562C94.026 32.5 94.1875 32.2708 94.1875 31.9688C94.1875 31.7083 94.0781 31.4896 93.8594 31.3125C93.651 31.125 93.2708 30.9115 92.7188 30.6719C92.1771 30.4323 91.4115 30.1094 90.4219 29.7031C89.4427 29.2969 88.625 28.8542 87.9688 28.375C87.3229 27.8958 86.8385 27.3229 86.5156 26.6562C86.1927 25.9896 86.0312 25.1719 86.0312 24.2031C86.0312 22.474 86.6979 21.1719 88.0312 20.2969C89.3646 19.4219 91.1302 18.9844 93.3281 18.9844C94.4948 18.9844 95.5938 19.1146 96.625 19.375C97.6562 19.625 98.724 19.9948 99.8281 20.4844L98.1562 24.4219C97.2812 24.026 96.3958 23.7083 95.5 23.4688C94.6042 23.2292 93.8906 23.1094 93.3594 23.1094C92.8802 23.1094 92.5104 23.1719 92.25 23.2969C91.9896 23.4219 91.8594 23.6042 91.8594 23.8438C91.8594 24.0625 91.9479 24.2552 92.125 24.4219C92.3125 24.5885 92.6615 24.7812 93.1719 25C93.6823 25.2188 94.4271 25.526 95.4062 25.9219C96.4375 26.3385 97.2865 26.7865 97.9531 27.2656C98.6302 27.7344 99.1302 28.3073 99.4531 28.9844C99.7865 29.6615 99.9531 30.5208 99.9531 31.5625ZM109.5 19.2969V37H103.391V19.2969H109.5ZM106.469 12.1719C107.344 12.1719 108.104 12.3542 108.75 12.7188C109.406 13.0833 109.734 13.8073 109.734 14.8906C109.734 15.9427 109.406 16.6562 108.75 17.0312C108.104 17.3958 107.344 17.5781 106.469 17.5781C105.573 17.5781 104.807 17.3958 104.172 17.0312C103.547 16.6562 103.234 15.9427 103.234 14.8906C103.234 13.8073 103.547 13.0833 104.172 12.7188C104.807 12.3542 105.573 12.1719 106.469 12.1719ZM135.375 18.9844C137.396 18.9844 138.938 19.5 140 20.5312C141.073 21.5625 141.609 23.2135 141.609 25.4844V37H135.5V27.375C135.5 26.0312 135.318 25.099 134.953 24.5781C134.599 24.0469 134.068 23.7812 133.359 23.7812C132.37 23.7812 131.682 24.2135 131.297 25.0781C130.922 25.9427 130.734 27.1667 130.734 28.75V37H124.609V27.375C124.609 26.5208 124.531 25.8333 124.375 25.3125C124.229 24.7812 124.005 24.3958 123.703 24.1562C123.401 23.9062 123.021 23.7812 122.562 23.7812C121.865 23.7812 121.318 23.9948 120.922 24.4219C120.536 24.8385 120.266 25.4531 120.109 26.2656C119.953 27.0781 119.875 28.0729 119.875 29.25V37H113.766V19.2969H118.375L119.266 21.4844H119.438C119.75 21.0052 120.151 20.5781 120.641 20.2031C121.141 19.8281 121.729 19.5312 122.406 19.3125C123.094 19.0938 123.875 18.9844 124.75 18.9844C126.052 18.9844 127.125 19.2031 127.969 19.6406C128.812 20.0781 129.5 20.6823 130.031 21.4531H130.219C130.781 20.6615 131.505 20.0521 132.391 19.625C133.276 19.1979 134.271 18.9844 135.375 18.9844ZM151.875 12.6875V18.1875C151.875 18.8125 151.854 19.4115 151.812 19.9844C151.771 20.5469 151.719 21.0781 151.656 21.5781H151.875C152.333 20.8594 152.932 20.25 153.672 19.75C154.411 19.2396 155.38 18.9844 156.578 18.9844C158.422 18.9844 159.927 19.7656 161.094 21.3281C162.271 22.8906 162.859 25.151 162.859 28.1094C162.859 30.1198 162.589 31.8125 162.047 33.1875C161.505 34.5521 160.745 35.5833 159.766 36.2812C158.797 36.9688 157.672 37.3125 156.391 37.3125C155.141 37.3125 154.188 37.099 153.531 36.6719C152.885 36.2344 152.333 35.7656 151.875 35.2656H151.5L150.531 37H145.766V12.6875H151.875ZM154.344 23.7812C153.781 23.7812 153.318 23.9115 152.953 24.1719C152.589 24.4323 152.318 24.8385 152.141 25.3906C151.964 25.9323 151.875 26.625 151.875 27.4688V28.3281C151.875 29.7031 152.057 30.724 152.422 31.3906C152.797 32.0573 153.458 32.3906 154.406 32.3906C155.125 32.3906 155.677 32.0208 156.062 31.2812C156.448 30.5417 156.641 29.4635 156.641 28.0469C156.641 26.6302 156.453 25.5677 156.078 24.8594C155.703 24.1406 155.125 23.7812 154.344 23.7812ZM172.5 19.2969V37H166.391V19.2969H172.5ZM169.469 12.1719C170.344 12.1719 171.104 12.3542 171.75 12.7188C172.406 13.0833 172.734 13.8073 172.734 14.8906C172.734 15.9427 172.406 16.6562 171.75 17.0312C171.104 17.3958 170.344 17.5781 169.469 17.5781C168.573 17.5781 167.807 17.3958 167.172 17.0312C166.547 16.6562 166.234 15.9427 166.234 14.8906C166.234 13.8073 166.547 13.0833 167.172 12.7188C167.807 12.3542 168.573 12.1719 169.469 12.1719ZM196.141 37L188.469 16.7812H188.344C188.385 17.2083 188.422 17.7292 188.453 18.3438C188.484 18.9583 188.51 19.6302 188.531 20.3594C188.552 21.0781 188.562 21.8125 188.562 22.5625V37H186.094V14.1562H190.031L197.266 33.1562H197.375L204.719 14.1562H208.625V37H206V22.375C206 21.6979 206.01 21.0208 206.031 20.3438C206.052 19.6562 206.078 19.0104 206.109 18.4062C206.141 17.7917 206.172 17.2604 206.203 16.8125H206.078L198.312 37H196.141ZM221.078 19.5625C222.536 19.5625 223.786 19.8854 224.828 20.5312C225.87 21.1771 226.667 22.0833 227.219 23.25C227.771 24.4062 228.047 25.7604 228.047 27.3125V28.9219H216.219C216.25 30.9323 216.75 32.4635 217.719 33.5156C218.688 34.5677 220.052 35.0938 221.812 35.0938C222.896 35.0938 223.854 34.9948 224.688 34.7969C225.521 34.599 226.385 34.3073 227.281 33.9219V36.2031C226.417 36.5885 225.557 36.8698 224.703 37.0469C223.859 37.224 222.859 37.3125 221.703 37.3125C220.057 37.3125 218.62 36.9792 217.391 36.3125C216.172 35.6354 215.224 34.6458 214.547 33.3438C213.87 32.0417 213.531 30.4479 213.531 28.5625C213.531 26.7188 213.839 25.125 214.453 23.7812C215.078 22.4271 215.953 21.3854 217.078 20.6562C218.214 19.9271 219.547 19.5625 221.078 19.5625ZM221.047 21.6875C219.661 21.6875 218.557 22.1406 217.734 23.0469C216.911 23.9531 216.422 25.2188 216.266 26.8438H225.328C225.318 25.8229 225.156 24.9271 224.844 24.1562C224.542 23.375 224.078 22.7708 223.453 22.3438C222.828 21.9062 222.026 21.6875 221.047 21.6875ZM240.234 19.5625C240.578 19.5625 240.938 19.5833 241.312 19.625C241.688 19.6562 242.021 19.7031 242.312 19.7656L241.984 22.1719C241.703 22.099 241.391 22.0417 241.047 22C240.703 21.9583 240.38 21.9375 240.078 21.9375C239.391 21.9375 238.74 22.0781 238.125 22.3594C237.521 22.6302 236.99 23.026 236.531 23.5469C236.073 24.0573 235.714 24.6771 235.453 25.4062C235.193 26.125 235.062 26.9271 235.062 27.8125V37H232.453V19.875H234.609L234.891 23.0312H235C235.354 22.3958 235.781 21.8177 236.281 21.2969C236.781 20.7656 237.359 20.3438 238.016 20.0312C238.682 19.7188 239.422 19.5625 240.234 19.5625ZM252.406 37.3125C250.865 37.3125 249.505 36.9948 248.328 36.3594C247.151 35.724 246.234 34.7552 245.578 33.4531C244.922 32.151 244.594 30.5104 244.594 28.5312C244.594 26.4583 244.938 24.7656 245.625 23.4531C246.323 22.1302 247.281 21.151 248.5 20.5156C249.719 19.8802 251.104 19.5625 252.656 19.5625C253.51 19.5625 254.333 19.651 255.125 19.8281C255.927 19.9948 256.583 20.2083 257.094 20.4688L256.312 22.6406C255.792 22.4323 255.188 22.2448 254.5 22.0781C253.823 21.9115 253.188 21.8281 252.594 21.8281C251.406 21.8281 250.417 22.0833 249.625 22.5938C248.844 23.1042 248.255 23.8542 247.859 24.8438C247.474 25.8333 247.281 27.0521 247.281 28.5C247.281 29.8854 247.469 31.0677 247.844 32.0469C248.229 33.026 248.797 33.776 249.547 34.2969C250.307 34.8073 251.255 35.0625 252.391 35.0625C253.297 35.0625 254.115 34.9688 254.844 34.7812C255.573 34.5833 256.234 34.3542 256.828 34.0938V36.4062C256.255 36.6979 255.615 36.9219 254.906 37.0781C254.208 37.2344 253.375 37.3125 252.406 37.3125ZM263.484 12.6875V19.9531C263.484 20.3698 263.474 20.7917 263.453 21.2188C263.432 21.6354 263.396 22.0208 263.344 22.375H263.516C263.87 21.7708 264.318 21.2656 264.859 20.8594C265.411 20.4427 266.036 20.1302 266.734 19.9219C267.432 19.7031 268.172 19.5938 268.953 19.5938C270.328 19.5938 271.474 19.8125 272.391 20.25C273.318 20.6875 274.01 21.3646 274.469 22.2812C274.938 23.1979 275.172 24.3854 275.172 25.8438V37H272.609V26.0156C272.609 24.5885 272.281 23.5208 271.625 22.8125C270.979 22.1042 269.984 21.75 268.641 21.75C267.37 21.75 266.354 21.9948 265.594 22.4844C264.844 22.9635 264.302 23.6719 263.969 24.6094C263.646 25.5469 263.484 26.6927 263.484 28.0469V37H260.891V12.6875H263.484ZM286.922 19.5938C288.964 19.5938 290.479 20.0521 291.469 20.9688C292.458 21.8854 292.953 23.349 292.953 25.3594V37H291.062L290.562 34.4688H290.438C289.958 35.0938 289.458 35.6198 288.938 36.0469C288.417 36.4635 287.812 36.7812 287.125 37C286.448 37.2083 285.615 37.3125 284.625 37.3125C283.583 37.3125 282.656 37.1302 281.844 36.7656C281.042 36.401 280.406 35.849 279.938 35.1094C279.479 34.3698 279.25 33.4323 279.25 32.2969C279.25 30.5885 279.927 29.276 281.281 28.3594C282.635 27.4427 284.698 26.9427 287.469 26.8594L290.422 26.7344V25.6875C290.422 24.2083 290.104 23.1719 289.469 22.5781C288.833 21.9844 287.938 21.6875 286.781 21.6875C285.885 21.6875 285.031 21.8177 284.219 22.0781C283.406 22.3385 282.635 22.6458 281.906 23L281.109 21.0312C281.88 20.6354 282.766 20.2969 283.766 20.0156C284.766 19.7344 285.818 19.5938 286.922 19.5938ZM290.391 28.5625L287.781 28.6719C285.646 28.7552 284.141 29.1042 283.266 29.7188C282.391 30.3333 281.953 31.2031 281.953 32.3281C281.953 33.3073 282.25 34.0312 282.844 34.5C283.438 34.9688 284.224 35.2031 285.203 35.2031C286.724 35.2031 287.969 34.7812 288.938 33.9375C289.906 33.0938 290.391 31.8281 290.391 30.1406V28.5625ZM306.406 19.5625C308.438 19.5625 309.974 20.0625 311.016 21.0625C312.057 22.0521 312.578 23.6458 312.578 25.8438V37H310.016V26.0156C310.016 24.5885 309.688 23.5208 309.031 22.8125C308.385 22.1042 307.391 21.75 306.047 21.75C304.151 21.75 302.818 22.2865 302.047 23.3594C301.276 24.4323 300.891 25.9896 300.891 28.0312V37H298.297V19.875H300.391L300.781 22.3438H300.922C301.286 21.7396 301.75 21.2344 302.312 20.8281C302.875 20.4115 303.505 20.099 304.203 19.8906C304.901 19.6719 305.635 19.5625 306.406 19.5625ZM323.453 35.1875C323.88 35.1875 324.318 35.151 324.766 35.0781C325.214 35.0052 325.578 34.9167 325.859 34.8125V36.8281C325.557 36.9635 325.135 37.0781 324.594 37.1719C324.062 37.2656 323.542 37.3125 323.031 37.3125C322.125 37.3125 321.302 37.1562 320.562 36.8438C319.823 36.5208 319.229 35.9792 318.781 35.2188C318.344 34.4583 318.125 33.4062 318.125 32.0625V21.9062H315.688V20.6406L318.141 19.625L319.172 15.9062H320.734V19.875H325.75V21.9062H320.734V31.9844C320.734 33.0573 320.979 33.8594 321.469 34.3906C321.969 34.9219 322.63 35.1875 323.453 35.1875Z" fill="#5824EC"/>
<rect width="50" height="50" rx="10" fill="#5824EC"/>
<path d="M16.016 35V12.312H20.016L21.744 16.952V35H16.016ZM31.664 35L18.416 18.168L20.016 12.312L33.296 29.144L31.664 35ZM31.664 35L30.192 30.232V12.312H35.92V35H31.664Z" fill="#F5F5F5"/>
</svg>
